<?xml version="1.0" encoding="UTF-8"?><svg xmlns="http://www.w3.org/2000/svg" viewBox="0 0 520.61 314.09"><defs><style>.d{fill:#009640;}.e{fill:#1d1d1b;}</style></defs><g id="a"/><g id="b"><g id="c"><path class="e" d="M376.27,101.74c-8.2-2.32-19.44-3.66-26.89,1.1-.38,.61-1.01,1.46-.38,2.07,7.57,1.46,16.54,1.22,23.73-.85,1.26-.49,3.16-.98,3.53-2.32Zm33.96-43.64c-5.3-2.07-12.5-3.29-19.31-2.32-2.4,1.1-6.06,.85-7.07,3.17,6.94,1.95,14.77,2.56,22.47,1.83,1.26-.85,4.04-.49,3.91-2.68Zm6.94-44.74c27.52,10.73,57.31,22.31,77.63,45.35,3.66,9.02,15.53,15.48,20.32,22.8,5.55,7.19,7.45,17.55,3.03,25.72-13.38,23.77-36.1,41.69-49.48,65.82-.88,4.14-.88,8.29,0,12.31-3.91-.12-7.57-2.68-11.49-4.02-21.59-8.9-43.05-17.92-66.02-23.4-1.89-3.05-.63-7.31-1.77-10.61-3.41,.49-7.45,1.22-11.23,1.83-34.97,3.54-68.42-3.41-98.21-15.6-7.57-3.17-11.23-11.21-19.94-12.19-10.6-4.75-22.59-11.58-24.61-23.77-2.27-15.12,4.42-29.13,18.56-36.57,14.52-8.17,32.19-9.39,49.35-11.34-2.9-1.46-6.82-.73-9.97-1.83-.25-4.27,4.92-7.68,5.43-11.34-10.48-1.34-21.59-2.19-32.06-2.68v-1.71C283.5,1.17,322.63-2,356.96,.81c20.95,1.95,40.77,7.07,60.21,12.56Z"/><path class="d" d="M398.11,83.82h-13.63c-19.19-.12-37.36-8.29-56.68-3.17-4.17,2.07-9.22,4.63-9.34,10,.13,3.66,1.64,6.7,4.54,9.26,13.89,8.29,31.56,11.22,49.1,8.78,12.88-1.95,20.45-13.53,27.27-23.65l-1.26-1.22Zm22.09-65.82c26.26,10.73,55.04,21.09,72.46,45.1,3.28,6.7,4.8,13.04,1.51,20.24-14.52,20.84-32.44,42.42-48.22,63.14-2.15,3.54-2.02,8.41-2.4,12.31-5.81-.73-11.23-4.14-16.92-6.22-16.91-5.61-33.83-11.09-51.5-14.87-1.55-3.45-1.55-9.33-.42-13.85-4.75,1.58-11.57,3.12-17.51,3.37-30.55,5-62.23,.37-91.14-7.31-10.35-4.15-22.97-10.48-25.12-22.55-1.77-9.87,1.01-19.02,6.56-26.09,21.21-19.14,53.14-19.38,82.81-16.7,26.63,1.58,49.48,11.09,76.62,10,4.42-.37,8.96-2.19,10.85-6.46,.88-4.51,.38-9.39-3.28-12.31-15.27-9.51-33.83-14.63-53.02-11.34-3.79,1.34-7.19,2.92-9.97,6.09-24.99-4.39-50.24-7.92-76.37-9.39l-.63-.49C290.82,1.78,328.43,2.03,360.24,4.34c20.45,3.53,41.28,6.22,59.96,13.65Z"/><path class="e" d="M147.93,88.21c-4.54,1.71-8.84,3.78-13.38,5.36-16.92,7.68-37.87,7.19-51.75,20.72-2.9,3.41-4.8,7.8-3.03,12.31,.76,2.68,3.79,3.9,6.06,5,19.82,.61,39.64-4.75,53.02-18.77,5.3-7.07,8.33-15.85,9.09-24.62ZM241.21,17.99c11.11,10,4.8,24.26,2.14,36.08-7.83,24.01-17.42,47.42-23.35,72.16,1.39,2.92,.38,6.7,3.03,9.14,.51,1.34-.76,1.83-1.77,1.71-26.51,2.19-52.51,5.61-77.25,11.7-3.66-2.68-4.16-7.56-5.55-11.7-2.78,.98-3.91,3.78-6.56,5-29.79,21.45-65.77,31.82-104.52,33.89-9.22-.98-19.69-2.56-23.73-11.7-8.33-14.63-1.14-32.18,9.09-43.52,34.46-36.94,86.47-40.47,131.53-56.44,5.43-2.8,11.61-5.85,13.38-12.07,.25-2.68-.38-5.24-1.89-6.95-4.92-3.78-11.74-3.9-18.18-3.29-17.42,2.32-37.24,5.97-44.81,22.8-27.01,5.97-52.89,14.38-78.14,24.38C20.05,45.79,66.76,27.99,104.63,18.36c28.28-6.46,57.18-11.46,87.86-12.56,16.79,1.95,35.34,1.34,48.72,12.19Z"/><path class="e" d="M393.13,87.51l-15.85-.15c-14.2-.09-33.17-7.45-47.46-3.66-3.08,1.53-6.82,3.43-6.91,7.4,.09,2.71,1.99,4.96,4.13,6.86,10.28,6.13,28.68,9.14,41.66,7.34,9.53-1.44,19.38-10.29,24.42-17.77Zm4.98-3.69l1.26,1.22c-6.82,10.12-14.39,21.7-27.27,23.65-17.54,2.44-35.22-.49-49.1-8.78-2.9-2.56-4.42-5.61-4.54-9.26,.13-5.36,5.18-7.92,9.34-10,19.31-5.12,37.49,3.05,56.68,3.17h13.63Z"/><path class="e" d="M278.19,145.62c-.88,2.68-5.43,5-6.44,7.92,25.5,1.1,49.73,5.24,73.72,9.87,.88,3.66,0,7.31,.25,11.09-1.64,12.31-.88,57.05-1.26,65.82l.63,.97c5.55-4.27,10.86-10.24,16.41-15.24,18.05-14.14,35.85-30.96,54.53-43.88,27.77,9.51,54.4,22.06,80.91,34.74v1.22c-36.86,18.41-74.98,39.25-107.3,66.44-8.08,6.7-16.28,13.17-24.24,20.11-27.64-5.61-54.78-12.55-84.19-14.26-2.65-17.07-4.54-34.25-6.69-51.56-1.26-1.1-.13-3.29-.88-4.63-.88-12.8-4.42-23.4-5.18-36.33-.38-.49-.88-.61-1.52-.49-27.64,29.99-51,64.48-73.34,97.64-28.65,5-56.68,11.82-84.45,19.02-3.16-.61-2.65-4.88-4.04-7.32-.63-1.34-1.01-3.05-2.65-3.78l-17.92,5c-3.28-2.93-3.28-8.17-5.43-12.07-13.89-35.59-28.02-71.8-43.68-107.03v-1.22c26.76-11.09,55.79-17.07,84.32-24.26,3.03,2.92,1.26,8.17,3.91,11.46,7.83-.12,15.02-3.66,22.97-4.39,3.41,9.63,4.29,20.11,7.57,29.86l1.26-.61c9.21-16.7,18.68-33.16,30.3-49.13,29.66-4.39,61.98-7.8,92.4-5Z"/><path class="d" d="M268.22,148.55c-1.26,2.07-5.55,6.83-6.69,7.92-33.2,39.49-67.03,82.52-93.28,127.75-3.28,2.32-7.7,1.58-11.23,2.93-23.1,5.24-46.2,10.48-68.8,17.07-1.64-.73-2.65-2.68-3.03-4.39-13.63-37.18-28.28-73.87-43.68-110.32v-.85c23.35-9.14,48.47-13.9,72.71-20.85l1.26,.37c7.57,22.67,13,46.08,19.44,69.24,1.77,.98,3.28-.37,4.8-.85,15.02-28.16,31.3-56.19,49.1-83.01l1.51-.98c25.37-2.68,52.01-5.73,77.88-4.02Z"/></g></g></svg>